{
    "asset" : {
        "generator" : "Khronos glTF Blender I/O v1.7.33",
        "version" : "2.0"
    },
    "scene" : 0,
    "scenes" : [
        {
            "name" : "Scene",
            "nodes" : [
                15
            ]
        }
    ],
    "nodes" : [
        {
            "mesh" : 0,
            "name" : "Sphere",
            "translation" : [
                200,
                0,
                0
            ]
        },
        {
            "mesh" : 1,
            "name" : "Sweep"
        },
        {
            "children" : [
                0,
                1
            ],
            "name" : "Null_0"
        },
        {
            "mesh" : 2,
            "name" : "Sphere_2",
            "translation" : [
                200,
                0,
                0
            ]
        },
        {
            "mesh" : 3,
            "name" : "Sweep_2"
        },
        {
            "children" : [
                3,
                4
            ],
            "name" : "Null_1",
            "rotation" : [
                0,
                -0.5142898559570312,
                0,
                0.8576164245605469
            ],
            "scale" : [
                0.8999999165534973,
                0.8999999761581421,
                0.8999999165534973
            ],
            "translation" : [
                10.48001480102539,
                0,
                19.627323150634766
            ]
        },
        {
            "mesh" : 4,
            "name" : "Sphere_3",
            "translation" : [
                200,
                0,
                0
            ]
        },
        {
            "mesh" : 5,
            "name" : "Sweep_3"
        },
        {
            "children" : [
                6,
                7
            ],
            "name" : "Null_2",
            "rotation" : [
                0,
                0.9987631440162659,
                0,
                0.049721430987119675
            ],
            "scale" : [
                0.800000011920929,
                0.800000011920929,
                0.800000011920929
            ],
            "translation" : [
                -11.659972190856934,
                0,
                17.417457580566406
            ]
        },
        {
            "mesh" : 6,
            "name" : "Sphere_4",
            "translation" : [
                200,
                0,
                0
            ]
        },
        {
            "mesh" : 7,
            "name" : "Sweep_4"
        },
        {
            "children" : [
                9,
                10
            ],
            "name" : "Null_3",
            "rotation" : [
                0,
                -0.09931979328393936,
                0,
                0.9950556755065918
            ],
            "scale" : [
                0.699999988079071,
                0.699999988079071,
                0.699999988079071
            ],
            "translation" : [
                10.15106201171875,
                0,
                21.81533432006836
            ]
        },
        {
            "mesh" : 8,
            "name" : "Sphere_5",
            "translation" : [
                200,
                0,
                0
            ]
        },
        {
            "mesh" : 9,
            "name" : "Sweep_5"
        },
        {
            "children" : [
                12,
                13
            ],
            "name" : "Null_4",
            "rotation" : [
                0,
                0.7716245651245117,
                0,
                0.6360782384872437
            ],
            "scale" : [
                0.6000000238418579,
                0.6000000238418579,
                0.6000000238418579
            ],
            "translation" : [
                5.905561447143555,
                0,
                -0.02587067149579525
            ]
        },
        {
            "children" : [
                2,
                5,
                8,
                11,
                14
            ],
            "name" : "Cloner",
            "rotation" : [
                0.7071068286895752,
                0,
                0,
                0.7071067094802856
            ],
            "scale" : [
                0.009999999776482582,
                0.009999999776482582,
                0.009999999776482582
            ]
        }
    ],
    "meshes" : [
        {
            "name" : "Mesh",
            "primitives" : [
                {
                    "attributes" : {
                        "POSITION" : 0,
                        "NORMAL" : 1,
                        "TEXCOORD_0" : 2
                    },
                    "indices" : 3
                }
            ]
        },
        {
            "name" : "Mesh.001",
            "primitives" : [
                {
                    "attributes" : {
                        "POSITION" : 4,
                        "NORMAL" : 5,
                        "TEXCOORD_0" : 6
                    },
                    "indices" : 7
                }
            ]
        },
        {
            "name" : "Mesh.002",
            "primitives" : [
                {
                    "attributes" : {
                        "POSITION" : 8,
                        "NORMAL" : 9,
                        "TEXCOORD_0" : 10
                    },
                    "indices" : 3
                }
            ]
        },
        {
            "name" : "Mesh.003",
            "primitives" : [
                {
                    "attributes" : {
                        "POSITION" : 11,
                        "NORMAL" : 12,
                        "TEXCOORD_0" : 13
                    },
                    "indices" : 7
                }
            ]
        },
        {
            "name" : "Mesh.004",
            "primitives" : [
                {
                    "attributes" : {
                        "POSITION" : 14,
                        "NORMAL" : 15,
                        "TEXCOORD_0" : 16
                    },
                    "indices" : 3
                }
            ]
        },
        {
            "name" : "Mesh.005",
            "primitives" : [
                {
                    "attributes" : {
                        "POSITION" : 17,
                        "NORMAL" : 18,
                        "TEXCOORD_0" : 19
                    },
                    "indices" : 7
                }
            ]
        },
        {
            "name" : "Mesh.006",
            "primitives" : [
                {
                    "attributes" : {
                        "POSITION" : 20,
                        "NORMAL" : 21,
                        "TEXCOORD_0" : 22
                    },
                    "indices" : 3
                }
            ]
        },
        {
            "name" : "Mesh.007",
            "primitives" : [
                {
                    "attributes" : {
                        "POSITION" : 23,
                        "NORMAL" : 24,
                        "TEXCOORD_0" : 25
                    },
                    "indices" : 7
                }
            ]
        },
        {
            "name" : "Mesh.008",
            "primitives" : [
                {
                    "attributes" : {
                        "POSITION" : 26,
                        "NORMAL" : 27,
                        "TEXCOORD_0" : 28
                    },
                    "indices" : 3
                }
            ]
        },
        {
            "name" : "Mesh.009",
            "primitives" : [
                {
                    "attributes" : {
                        "POSITION" : 29,
                        "NORMAL" : 30,
                        "TEXCOORD_0" : 31
                    },
                    "indices" : 7
                }
            ]
        }
    ],
    "accessors" : [
        {
            "bufferView" : 0,
            "componentType" : 5126,
            "count" : 323,
            "max" : [
                15,
                15,
                15
            ],
            "min" : [
                -15,
                -15,
                -15
            ],
            "type" : "VEC3"
        },
        {
            "bufferView" : 1,
            "componentType" : 5126,
            "count" : 323,
            "type" : "VEC3"
        },
        {
            "bufferView" : 2,
            "componentType" : 5126,
            "count" : 323,
            "type" : "VEC2"
        },
        {
            "bufferView" : 3,
            "componentType" : 5123,
            "count" : 1584,
            "type" : "SCALAR"
        },
        {
            "bufferView" : 4,
            "componentType" : 5126,
            "count" : 4761,
            "max" : [
                201.00115966796875,
                1,
                201.00115966796875
            ],
            "min" : [
                -201.00115966796875,
                -1,
                -201.00115966796875
            ],
            "type" : "VEC3"
        },
        {
            "bufferView" : 5,
            "componentType" : 5126,
            "count" : 4761,
            "type" : "VEC3"
        },
        {
            "bufferView" : 6,
            "componentType" : 5126,
            "count" : 4761,
            "type" : "VEC2"
        },
        {
            "bufferView" : 7,
            "componentType" : 5123,
            "count" : 27744,
            "type" : "SCALAR"
        },
        {
            "bufferView" : 8,
            "componentType" : 5126,
            "count" : 323,
            "max" : [
                15,
                15,
                15
            ],
            "min" : [
                -15,
                -15,
                -15
            ],
            "type" : "VEC3"
        },
        {
            "bufferView" : 9,
            "componentType" : 5126,
            "count" : 323,
            "type" : "VEC3"
        },
        {
            "bufferView" : 10,
            "componentType" : 5126,
            "count" : 323,
            "type" : "VEC2"
        },
        {
            "bufferView" : 11,
            "componentType" : 5126,
            "count" : 4761,
            "max" : [
                201.00115966796875,
                1,
                201.00115966796875
            ],
            "min" : [
                -201.00115966796875,
                -1,
                -201.00115966796875
            ],
            "type" : "VEC3"
        },
        {
            "bufferView" : 12,
            "componentType" : 5126,
            "count" : 4761,
            "type" : "VEC3"
        },
        {
            "bufferView" : 13,
            "componentType" : 5126,
            "count" : 4761,
            "type" : "VEC2"
        },
        {
            "bufferView" : 14,
            "componentType" : 5126,
            "count" : 323,
            "max" : [
                15,
                15,
                15
            ],
            "min" : [
                -15,
                -15,
                -15
            ],
            "type" : "VEC3"
        },
        {
            "bufferView" : 15,
            "componentType" : 5126,
            "count" : 323,
            "type" : "VEC3"
        },
        {
            "bufferView" : 16,
            "componentType" : 5126,
            "count" : 323,
            "type" : "VEC2"
        },
        {
            "bufferView" : 17,
            "componentType" : 5126,
            "count" : 4761,
            "max" : [
                201.00115966796875,
                1,
                201.00115966796875
            ],
            "min" : [
                -201.00115966796875,
                -1,
                -201.00115966796875
            ],
            "type" : "VEC3"
        },
        {
            "bufferView" : 18,
            "componentType" : 5126,
            "count" : 4761,
            "type" : "VEC3"
        },
        {
            "bufferView" : 19,
            "componentType" : 5126,
            "count" : 4761,
            "type" : "VEC2"
        },
        {
            "bufferView" : 20,
            "componentType" : 5126,
            "count" : 323,
            "max" : [
                15,
                15,
                15
            ],
            "min" : [
                -15,
                -15,
                -15
            ],
            "type" : "VEC3"
        },
        {
            "bufferView" : 21,
            "componentType" : 5126,
            "count" : 323,
            "type" : "VEC3"
        },
        {
            "bufferView" : 22,
            "componentType" : 5126,
            "count" : 323,
            "type" : "VEC2"
        },
        {
            "bufferView" : 23,
            "componentType" : 5126,
            "count" : 4761,
            "max" : [
                201.00115966796875,
                1,
                201.00115966796875
            ],
            "min" : [
                -201.00115966796875,
                -1,
                -201.00115966796875
            ],
            "type" : "VEC3"
        },
        {
            "bufferView" : 24,
            "componentType" : 5126,
            "count" : 4761,
            "type" : "VEC3"
        },
        {
            "bufferView" : 25,
            "componentType" : 5126,
            "count" : 4761,
            "type" : "VEC2"
        },
        {
            "bufferView" : 26,
            "componentType" : 5126,
            "count" : 323,
            "max" : [
                15,
                15,
                15
            ],
            "min" : [
                -15,
                -15,
                -15
            ],
            "type" : "VEC3"
        },
        {
            "bufferView" : 27,
            "componentType" : 5126,
            "count" : 323,
            "type" : "VEC3"
        },
        {
            "bufferView" : 28,
            "componentType" : 5126,
            "count" : 323,
            "type" : "VEC2"
        },
        {
            "bufferView" : 29,
            "componentType" : 5126,
            "count" : 4761,
            "max" : [
                201.00115966796875,
                1,
                201.00115966796875
            ],
            "min" : [
                -201.00115966796875,
                -1,
                -201.00115966796875
            ],
            "type" : "VEC3"
        },
        {
            "bufferView" : 30,
            "componentType" : 5126,
            "count" : 4761,
            "type" : "VEC3"
        },
        {
            "bufferView" : 31,
            "componentType" : 5126,
            "count" : 4761,
            "type" : "VEC2"
        }
    ],
    "bufferViews" : [
        {
            "buffer" : 0,
            "byteLength" : 3876,
            "byteOffset" : 0
        },
        {
            "buffer" : 0,
            "byteLength" : 3876,
            "byteOffset" : 3876
        },
        {
            "buffer" : 0,
            "byteLength" : 2584,
            "byteOffset" : 7752
        },
        {
            "buffer" : 0,
            "byteLength" : 3168,
            "byteOffset" : 10336
        },
        {
            "buffer" : 0,
            "byteLength" : 57132,
            "byteOffset" : 13504
        },
        {
            "buffer" : 0,
            "byteLength" : 57132,
            "byteOffset" : 70636
        },
        {
            "buffer" : 0,
            "byteLength" : 38088,
            "byteOffset" : 127768
        },
        {
            "buffer" : 0,
            "byteLength" : 55488,
            "byteOffset" : 165856
        },
        {
            "buffer" : 0,
            "byteLength" : 3876,
            "byteOffset" : 221344
        },
        {
            "buffer" : 0,
            "byteLength" : 3876,
            "byteOffset" : 225220
        },
        {
            "buffer" : 0,
            "byteLength" : 2584,
            "byteOffset" : 229096
        },
        {
            "buffer" : 0,
            "byteLength" : 57132,
            "byteOffset" : 231680
        },
        {
            "buffer" : 0,
            "byteLength" : 57132,
            "byteOffset" : 288812
        },
        {
            "buffer" : 0,
            "byteLength" : 38088,
            "byteOffset" : 345944
        },
        {
            "buffer" : 0,
            "byteLength" : 3876,
            "byteOffset" : 384032
        },
        {
            "buffer" : 0,
            "byteLength" : 3876,
            "byteOffset" : 387908
        },
        {
            "buffer" : 0,
            "byteLength" : 2584,
            "byteOffset" : 391784
        },
        {
            "buffer" : 0,
            "byteLength" : 57132,
            "byteOffset" : 394368
        },
        {
            "buffer" : 0,
            "byteLength" : 57132,
            "byteOffset" : 451500
        },
        {
            "buffer" : 0,
            "byteLength" : 38088,
            "byteOffset" : 508632
        },
        {
            "buffer" : 0,
            "byteLength" : 3876,
            "byteOffset" : 546720
        },
        {
            "buffer" : 0,
            "byteLength" : 3876,
            "byteOffset" : 550596
        },
        {
            "buffer" : 0,
            "byteLength" : 2584,
            "byteOffset" : 554472
        },
        {
            "buffer" : 0,
            "byteLength" : 57132,
            "byteOffset" : 557056
        },
        {
            "buffer" : 0,
            "byteLength" : 57132,
            "byteOffset" : 614188
        },
        {
            "buffer" : 0,
            "byteLength" : 38088,
            "byteOffset" : 671320
        },
        {
            "buffer" : 0,
            "byteLength" : 3876,
            "byteOffset" : 709408
        },
        {
            "buffer" : 0,
            "byteLength" : 3876,
            "byteOffset" : 713284
        },
        {
            "buffer" : 0,
            "byteLength" : 2584,
            "byteOffset" : 717160
        },
        {
            "buffer" : 0,
            "byteLength" : 57132,
            "byteOffset" : 719744
        },
        {
            "buffer" : 0,
            "byteLength" : 57132,
            "byteOffset" : 776876
        },
        {
            "buffer" : 0,
            "byteLength" : 38088,
            "byteOffset" : 834008
        }
    ],
    "buffers" : [
        {
            "byteLength" : 872096,
            "uri" : "data:application/octet-stream;base64,"
        }
    ]
}
